<svg class="svg-icon" style="width: 1em; height: 1em;vertical-align: middle;fill: currentColor;overflow: hidden;" viewBox="0 0 1024 1024" version="1.1" xmlns="http://www.w3.org/2000/svg"><path d="M512 832.1c-176.5 0-320.1-143.6-320.1-320.1 0-176.5 143.6-320.1 320.1-320.1 176.5 0 320.1 143.6 320.1 320.1 0 176.5-143.6 320.1-320.1 320.1z m0-612.7c-161.3 0-292.6 131.2-292.6 292.6 0 161.3 131.2 292.6 292.6 292.6 161.3 0 292.6-131.2 292.6-292.6 0-161.3-131.3-292.6-292.6-292.6z" fill="#E9440B" /><path d="M690 584.7H334c-24.6 0-44.7-20.1-44.7-44.7s20.1-44.7 44.7-44.7h356c24.6 0 44.7 20.1 44.7 44.7s-20.1 44.7-44.7 44.7z" fill="#FFFFFF" /><path d="M690 593.9H334c-29.7 0-53.9-24.2-53.9-53.9s24.2-53.9 53.9-53.9h356c29.7 0 53.9 24.2 53.9 53.9s-24.2 53.9-53.9 53.9z m-356-89.5c-19.6 0-35.5 15.9-35.5 35.5s15.9 35.5 35.5 35.5h356c19.6 0 35.5-15.9 35.5-35.5s-15.9-35.5-35.5-35.5H334z" fill="#603813" /><path d="M690 584.7H588.7v-89.5H690c24.6 0 44.7 20.1 44.7 44.7 0 24.7-20.1 44.8-44.7 44.8z" fill="#F7AF5C" /><path d="M690 593.9H588.7c-5.1 0-9.2-4.1-9.2-9.2v-89.5c0-5.1 4.1-9.2 9.2-9.2H690c29.7 0 53.9 24.2 53.9 53.9 0 29.8-24.2 54-53.9 54z m-92.1-18.4H690c19.6 0 35.5-15.9 35.5-35.5s-15.9-35.5-35.5-35.5h-92.1v71z" fill="#603813" /><path d="M321.3 562c-6.2 0-11.4-5.1-11.4-11.4v-21.3c0-6.2 5.1-11.4 11.4-11.4 6.2 0 11.4 5.1 11.4 11.4v21.3c-0.1 6.3-5.2 11.4-11.4 11.4z" fill="#E9440B" /><path d="M351.7 459.8c-4.4 0-8.2-3.1-9-7.6-2.9-16.3-1.7-45.5 21.6-51.7 6-1.6 11.7-1.7 17.2-1.8 15.2-0.2 28.3-0.4 42.6-41.4 1.7-4.8 6.9-7.3 11.7-5.6 4.8 1.7 7.3 6.9 5.6 11.7-17.1 49.1-37.1 53.4-59.6 53.7-4.6 0.1-8.9 0.1-12.7 1.1-10.9 2.9-9.3 24.9-8.2 30.7 0.9 5-2.4 9.8-7.4 10.7-0.8 0.2-1.3 0.2-1.8 0.2z" fill="#603813" /><path d="M728.7 741.2c-3.5 0-7-1.3-9.7-4L286.3 304.5c-5.4-5.4-5.4-14.1 0-19.5s14.1-5.4 19.5 0l432.7 432.7c5.4 5.4 5.4 14.1 0 19.5-2.7 2.6-6.3 4-9.8 4z" fill="#E9440B" /></svg>